<svg width="103" height="104" viewBox="0 0 103 104" fill="none" xmlns="http://www.w3.org/2000/svg">
<path d="M51.2 0.800049C37.6209 0.800049 24.598 6.19432 14.9961 15.7962C5.39427 25.398 0 38.421 0 52C0 65.5791 5.39427 78.6021 14.9961 88.2039C24.598 97.8058 37.6209 103.2 51.2 103.2C64.7791 103.2 77.802 97.8058 87.4039 88.2039C97.0057 78.6021 102.4 65.5791 102.4 52C102.4 38.421 97.0057 25.398 87.4039 15.7962C77.802 6.19432 64.7791 0.800049 51.2 0.800049ZM32 52C32 53.6974 31.3257 55.3253 30.1255 56.5255C28.9252 57.7258 27.2974 58.4001 25.6 58.4001C23.9026 58.4001 22.2748 57.7258 21.0745 56.5255C19.8743 55.3253 19.2 53.6974 19.2 52C19.2 50.3027 19.8743 48.6748 21.0745 47.4746C22.2748 46.2743 23.9026 45.6 25.6 45.6C27.2974 45.6 28.9252 46.2743 30.1255 47.4746C31.3257 48.6748 32 50.3027 32 52ZM57.6 52C57.6 53.6974 56.9257 55.3253 55.7255 56.5255C54.5253 57.7258 52.8974 58.4001 51.2 58.4001C49.5026 58.4001 47.8748 57.7258 46.6745 56.5255C45.4743 55.3253 44.8 53.6974 44.8 52C44.8 50.3027 45.4743 48.6748 46.6745 47.4746C47.8748 46.2743 49.5026 45.6 51.2 45.6C52.8974 45.6 54.5253 46.2743 55.7255 47.4746C56.9257 48.6748 57.6 50.3027 57.6 52ZM83.2 52C83.2 53.6974 82.5257 55.3253 81.3255 56.5255C80.1253 57.7258 78.4974 58.4001 76.8 58.4001C75.1026 58.4001 73.4748 57.7258 72.2745 56.5255C71.0743 55.3253 70.4 53.6974 70.4 52C70.4 50.3027 71.0743 48.6748 72.2745 47.4746C73.4748 46.2743 75.1026 45.6 76.8 45.6C78.4974 45.6 80.1253 46.2743 81.3255 47.4746C82.5257 48.6748 83.2 50.3027 83.2 52Z" fill="#324D5B"/>
</svg>
