<svg width="350" height="60" viewBox="0 0 350 60" fill="none" xmlns="http://www.w3.org/2000/svg">
<rect width="350" height="60" rx="5" fill="black"/>
<path d="M16 33V9.99H19.51V33H16ZM20.68 33V9.99H21.85V33H20.68ZM23.02 33V9.99H24.19V33H23.02ZM25.36 33V9.99H26.53V33H25.36ZM31.21 33V9.99H34.72V33H31.21ZM24.736 40.917L23.995 41.697V45.441H22.942V36.393H24.151V36.51C24.099 36.562 24.06 36.627 24.034 36.705C24.008 36.757 23.995 36.874 23.995 37.056V40.566L27.778 36.354C28.012 36.38 28.259 36.393 28.519 36.393H28.909L25.477 40.293L29.143 45.441L27.856 45.48L24.736 40.917ZM35.8809 33V9.99H39.3909V33H35.8809ZM40.5609 33V9.99H41.7309V33H40.5609ZM42.9009 33V9.99H46.4109V33H42.9009ZM47.5809 33V9.99H48.7509V33H47.5809ZM53.4309 33V9.99H54.6009V33H53.4309ZM45.8259 45.597C44.7859 45.597 43.9929 45.194 43.4469 44.388C42.8749 43.582 42.5889 42.438 42.5889 40.956C42.5889 39.526 42.8749 38.395 43.4469 37.563C44.0189 36.757 44.8119 36.354 45.8259 36.354C46.8399 36.354 47.6329 36.757 48.2049 37.563C48.7769 38.395 49.0629 39.526 49.0629 40.956C49.0629 42.438 48.7769 43.582 48.2049 44.388C47.6589 45.194 46.8659 45.597 45.8259 45.597ZM45.8259 44.7C46.5279 44.7 47.0609 44.388 47.4249 43.764C47.8149 43.114 48.0099 42.178 48.0099 40.956C48.0099 39.812 47.8149 38.902 47.4249 38.226C47.0349 37.576 46.5019 37.251 45.8259 37.251C45.1499 37.251 44.6169 37.576 44.2269 38.226C43.8369 38.902 43.6419 39.812 43.6419 40.956C43.6419 42.178 43.8239 43.114 44.1879 43.764C44.5779 44.388 45.1239 44.7 45.8259 44.7ZM55.7617 33V9.99H59.2717V33H55.7617ZM63.9517 33V9.99H67.4617V33H63.9517ZM68.6317 33V9.99H69.8017V33H68.6317ZM70.9717 33V9.99H72.1417V33H70.9717ZM73.3117 33V9.99H74.4817V33H73.3117ZM62.3137 36.393H63.2497L64.2247 42.516L65.7067 37.056H66.0187L67.4617 42.555L68.2807 36.393H69.1387L67.7347 45.441H67.3447L65.7847 39.552L64.1857 45.441H63.7567L62.3137 36.393ZM75.6426 33V9.99H79.1526V33H75.6426ZM80.3226 33V9.99H81.4926V33H80.3226ZM82.6626 33V9.99H83.8326V33H82.6626ZM88.5126 33V9.99H89.6826V33H88.5126ZM90.8526 33V9.99H94.3626V33H90.8526ZM87.0306 42.789H84.1056L83.2086 45.441H82.1946L85.5096 36.237H85.6266L88.9806 45.441H87.9276L87.0306 42.789ZM86.7576 42.009L85.5876 38.577L84.3786 42.009H86.7576ZM95.5234 33V9.99H96.6934V33H95.5234ZM97.8634 33V9.99H101.373V33H97.8634ZM102.543 33V9.99H103.713V33H102.543ZM104.883 33V9.99H106.053V33H104.883ZM110.733 33V9.99H114.243V33H110.733ZM102.816 36.393H103.986V36.51C103.934 36.562 103.895 36.627 103.869 36.705C103.869 36.757 103.869 36.874 103.869 37.056V44.583H108.198V45.441H102.816V36.393ZM115.404 33V9.99H118.914V33H115.404ZM120.084 33V9.99H121.254V33H120.084ZM122.424 33V9.99H125.934V33H122.424ZM130.614 33V9.99H131.784V33H130.614ZM132.954 33V9.99H134.124V33H132.954ZM122.58 36.393H128.118V37.29H123.516V40.254H127.338V41.19H123.516V44.544H128.079V45.441H122.58V36.393ZM135.285 33V9.99H136.455V33H135.285ZM137.625 33V9.99H138.795V33H137.625ZM139.965 33V9.99H143.475V33H139.965ZM144.645 33V9.99H145.815V33H144.645ZM150.495 33V9.99H154.005V33H150.495ZM142.344 36.393H143.319L147.102 43.101V36.393H148.233V36.51C148.155 36.562 148.116 36.627 148.116 36.705C148.09 36.757 148.077 36.874 148.077 37.056V45.441H147.297L143.28 38.343V45.441H142.344V36.393ZM155.166 33V9.99H158.676V33H155.166ZM159.846 33V9.99H161.016V33H159.846ZM162.186 33V9.99H163.356V33H162.186ZM164.526 33V9.99H165.696V33H164.526ZM170.376 33V9.99H173.886V33H170.376ZM163.902 40.917L163.161 41.697V45.441H162.108V36.393H163.317V36.51C163.265 36.562 163.226 36.627 163.2 36.705C163.174 36.757 163.161 36.874 163.161 37.056V40.566L166.944 36.354C167.178 36.38 167.425 36.393 167.685 36.393H168.075L164.643 40.293L168.309 45.441L167.022 45.48L163.902 40.917ZM175.047 33V9.99H178.557V33H175.047ZM179.727 33V9.99H180.897V33H179.727ZM182.067 33V9.99H185.577V33H182.067ZM186.747 33V9.99H187.917V33H186.747ZM192.597 33V9.99H193.767V33H192.597ZM184.992 45.597C183.952 45.597 183.159 45.194 182.613 44.388C182.041 43.582 181.755 42.438 181.755 40.956C181.755 39.526 182.041 38.395 182.613 37.563C183.185 36.757 183.978 36.354 184.992 36.354C186.006 36.354 186.799 36.757 187.371 37.563C187.943 38.395 188.229 39.526 188.229 40.956C188.229 42.438 187.943 43.582 187.371 44.388C186.825 45.194 186.032 45.597 184.992 45.597ZM184.992 44.7C185.694 44.7 186.227 44.388 186.591 43.764C186.981 43.114 187.176 42.178 187.176 40.956C187.176 39.812 186.981 38.902 186.591 38.226C186.201 37.576 185.668 37.251 184.992 37.251C184.316 37.251 183.783 37.576 183.393 38.226C183.003 38.902 182.808 39.812 182.808 40.956C182.808 42.178 182.99 43.114 183.354 43.764C183.744 44.388 184.29 44.7 184.992 44.7ZM194.928 33V9.99H196.098V33H194.928ZM200.778 33V9.99H204.288V33H200.778ZM205.458 33V9.99H206.628V33H205.458ZM207.798 33V9.99H211.308V33H207.798ZM212.478 33V9.99H213.648V33H212.478ZM214.809 33V9.99H215.979V33H214.809ZM217.149 33V9.99H220.659V33H217.149ZM221.829 33V9.99H222.999V33H221.829ZM224.169 33V9.99H227.679V33H224.169ZM232.359 33V9.99H233.529V33H232.359ZM224.715 45.597C223.545 45.597 222.596 45.207 221.868 44.427L222.414 43.53L222.453 43.413L222.57 43.452C222.57 43.478 222.583 43.53 222.609 43.608C222.609 43.66 222.635 43.725 222.687 43.803C222.713 43.855 222.765 43.907 222.843 43.959C223.389 44.427 224.065 44.661 224.871 44.661C225.391 44.661 225.833 44.518 226.197 44.232C226.561 43.92 226.743 43.556 226.743 43.14C226.743 42.854 226.678 42.607 226.548 42.399C226.444 42.217 226.249 42.035 225.963 41.853C225.677 41.671 225.235 41.45 224.637 41.19C223.753 40.852 223.116 40.462 222.726 40.02C222.362 39.578 222.18 39.084 222.18 38.538C222.18 37.862 222.427 37.316 222.921 36.9C223.415 36.484 224.078 36.276 224.91 36.276C225.404 36.276 225.872 36.38 226.314 36.588C226.73 36.796 227.107 37.069 227.445 37.407L226.782 38.304L226.704 38.226C226.704 38.2 226.691 38.161 226.665 38.109C226.665 38.031 226.639 37.966 226.587 37.914C226.561 37.836 226.509 37.771 226.431 37.719C226.223 37.511 225.976 37.355 225.69 37.251C225.43 37.173 225.118 37.134 224.754 37.134C224.286 37.134 223.922 37.264 223.662 37.524C223.376 37.784 223.233 38.096 223.233 38.46C223.233 38.746 223.285 38.993 223.389 39.201C223.519 39.409 223.74 39.604 224.052 39.786C224.364 39.994 224.832 40.215 225.456 40.449C226.314 40.813 226.912 41.177 227.25 41.541C227.562 41.931 227.718 42.412 227.718 42.984C227.718 43.426 227.614 43.842 227.406 44.232C227.172 44.622 226.834 44.947 226.392 45.207C225.924 45.467 225.365 45.597 224.715 45.597ZM234.689 33V9.99H235.859V33H234.689ZM237.029 33V9.99H238.199V33H237.029ZM239.369 33V9.99H242.879V33H239.369ZM244.049 33V9.99H247.559V33H244.049ZM252.239 33V9.99H253.409V33H252.239ZM244.01 37.29H241.475V36.393H247.715V37.29H245.063V45.441H244.01V37.29ZM254.57 33V9.99H258.08V33H254.57ZM262.76 33V9.99H263.93V33H262.76ZM265.1 33V9.99H266.27V33H265.1ZM267.44 33V9.99H268.61V33H267.44ZM269.78 33V9.99H273.29V33H269.78ZM264.515 45.597C263.579 45.597 262.864 45.311 262.37 44.739C261.876 44.167 261.629 43.361 261.629 42.321V36.393H262.76V36.51C262.682 36.562 262.643 36.627 262.643 36.705C262.617 36.757 262.604 36.874 262.604 37.056V42.321C262.604 43.101 262.76 43.699 263.072 44.115C263.358 44.531 263.852 44.739 264.554 44.739C265.23 44.739 265.724 44.531 266.036 44.115C266.348 43.699 266.504 43.088 266.504 42.282V36.393H267.479V42.282C267.479 43.4 267.219 44.232 266.699 44.778C266.179 45.324 265.451 45.597 264.515 45.597ZM274.451 33V9.99H275.621V33H274.451ZM276.791 33V9.99H277.961V33H276.791ZM279.131 33V9.99H282.641V33H279.131ZM287.321 33V9.99H288.491V33H287.321ZM289.661 33V9.99H293.171V33H289.661ZM281.549 36.393H283.655C284.409 36.393 284.994 36.497 285.41 36.705C285.852 36.913 286.229 37.225 286.541 37.641C287.139 38.421 287.438 39.526 287.438 40.956C287.386 42.438 287.048 43.556 286.424 44.31C285.8 45.09 284.825 45.467 283.499 45.441H281.549V36.393ZM283.421 44.661C285.423 44.661 286.424 43.452 286.424 41.034C286.424 39.812 286.203 38.876 285.761 38.226C285.293 37.576 284.565 37.251 283.577 37.251H282.524V44.661H283.421ZM294.332 33V9.99H295.502V33H294.332ZM296.672 33V9.99H300.182V33H296.672ZM301.352 33V9.99H302.522V33H301.352ZM307.202 33V9.99H310.712V33H307.202ZM311.882 33V9.99H313.052V33H311.882ZM301.82 44.583H303.614V37.251H301.937V36.393H306.422V37.251H304.628V44.583H306.5V45.441H301.82V44.583ZM314.213 33V9.99H317.723V33H314.213ZM318.893 33V9.99H320.063V33H318.893ZM321.233 33V9.99H324.743V33H321.233ZM325.913 33V9.99H327.083V33H325.913ZM331.763 33V9.99H332.933V33H331.763ZM324.158 45.597C323.118 45.597 322.325 45.194 321.779 44.388C321.207 43.582 320.921 42.438 320.921 40.956C320.921 39.526 321.207 38.395 321.779 37.563C322.351 36.757 323.144 36.354 324.158 36.354C325.172 36.354 325.965 36.757 326.537 37.563C327.109 38.395 327.395 39.526 327.395 40.956C327.395 42.438 327.109 43.582 326.537 44.388C325.991 45.194 325.198 45.597 324.158 45.597ZM324.158 44.7C324.86 44.7 325.393 44.388 325.757 43.764C326.147 43.114 326.342 42.178 326.342 40.956C326.342 39.812 326.147 38.902 325.757 38.226C325.367 37.576 324.834 37.251 324.158 37.251C323.482 37.251 322.949 37.576 322.559 38.226C322.169 38.902 321.974 39.812 321.974 40.956C321.974 42.178 322.156 43.114 322.52 43.764C322.91 44.388 323.456 44.7 324.158 44.7Z" fill="white"/>
</svg>
