<svg width="218" height="81" viewBox="0 0 218 81" fill="none" xmlns="http://www.w3.org/2000/svg">
<rect width="218" height="81" fill="black"/>
<path d="M22.9108 26.2252C24.1202 26.2252 25.1672 26.4191 26.0515 26.8068C26.9488 27.1946 27.6381 27.745 28.1193 28.4581C28.6005 29.1711 28.841 30.0154 28.841 30.9912C28.841 31.9543 28.6005 32.7987 28.1193 33.5243C27.6381 34.2373 26.9488 34.7877 26.0515 35.1755C25.1672 35.5507 24.1202 35.7384 22.9108 35.7384H20.1602V39.3598H17V26.2252H22.9108ZM22.7352 33.2616C23.6846 33.2616 24.4063 33.0676 24.9006 32.6799C25.3948 32.2796 25.6418 31.7167 25.6418 30.9912C25.6418 30.2531 25.3948 29.6902 24.9006 29.3024C24.4063 28.9021 23.6846 28.702 22.7352 28.702H20.1602V33.2616H22.7352ZM35.5886 39.5099C34.4831 39.5099 33.4882 39.291 32.6039 38.8532C31.7325 38.4029 31.0498 37.7836 30.5556 36.9956C30.0614 36.2075 29.8143 35.3131 29.8143 34.3123C29.8143 33.3116 30.0614 32.4172 30.5556 31.6291C31.0498 30.841 31.7325 30.2281 32.6039 29.7903C33.4882 29.3399 34.4831 29.1148 35.5886 29.1148C36.694 29.1148 37.6823 29.3399 38.5537 29.7903C39.425 30.2281 40.1077 30.841 40.602 31.6291C41.0962 32.4172 41.3432 33.3116 41.3432 34.3123C41.3432 35.3131 41.0962 36.2075 40.602 36.9956C40.1077 37.7836 39.425 38.4029 38.5537 38.8532C37.6823 39.291 36.694 39.5099 35.5886 39.5099ZM35.5886 37.1082C36.3688 37.1082 37.0061 36.858 37.5002 36.3575C38.0075 35.8447 38.261 35.163 38.261 34.3123C38.261 33.4617 38.0075 32.7862 37.5002 32.2859C37.0061 31.7729 36.3688 31.5166 35.5886 31.5166C34.8082 31.5166 34.1645 31.7729 33.6573 32.2859C33.1501 32.7862 32.8965 33.4617 32.8965 34.3123C32.8965 35.163 33.1501 35.8447 33.6573 36.3575C34.1645 36.858 34.8082 37.1082 35.5886 37.1082ZM48.4303 39.5099C47.3118 39.5099 46.3039 39.291 45.4065 38.8532C44.5222 38.4029 43.8265 37.7836 43.3193 36.9956C42.8251 36.2075 42.578 35.3131 42.578 34.3123C42.578 33.3116 42.8251 32.4172 43.3193 31.6291C43.8265 30.841 44.5222 30.2281 45.4065 29.7903C46.3039 29.3399 47.3118 29.1148 48.4303 29.1148C49.5357 29.1148 50.498 29.3399 51.3173 29.7903C52.1497 30.2281 52.7544 30.8598 53.1315 31.6854L50.7712 32.905C50.2249 31.9794 49.4381 31.5166 48.4107 31.5166C47.6174 31.5166 46.9607 31.7668 46.4405 32.2671C45.9203 32.7675 45.6602 33.4492 45.6602 34.3123C45.6602 35.1755 45.9203 35.8572 46.4405 36.3575C46.9607 36.858 47.6174 37.1082 48.4107 37.1082C49.4512 37.1082 50.238 36.6453 50.7712 35.7196L53.1315 36.958C52.7544 37.7586 52.1497 38.3841 51.3173 38.8344C50.498 39.2848 49.5357 39.5099 48.4303 39.5099ZM134.139 39.585C132.748 39.585 131.486 39.2973 130.355 38.7218C129.236 38.1339 128.352 37.3271 127.702 36.3013C127.065 35.263 126.746 34.0934 126.746 32.7925C126.746 31.4915 127.065 30.3282 127.702 29.3024C128.352 28.2642 129.236 27.4573 130.355 26.8819C131.486 26.294 132.754 26 134.159 26C135.342 26 136.409 26.2001 137.358 26.6004C138.32 27.0007 139.127 27.5762 139.777 28.3267L137.748 30.128C136.825 29.1023 135.68 28.5894 134.315 28.5894C133.469 28.5894 132.715 28.7708 132.052 29.1335C131.389 29.4838 130.868 29.9779 130.491 30.6159C130.127 31.2538 129.945 31.9794 129.945 32.7925C129.945 33.6055 130.127 34.3311 130.491 34.9691C130.868 35.607 131.389 36.1074 132.052 36.4702C132.715 36.8205 133.469 36.9956 134.315 36.9956C135.68 36.9956 136.825 36.4764 137.748 35.4382L139.777 37.2395C139.127 38.0026 138.32 38.5843 137.358 38.9845C136.396 39.3848 135.322 39.585 134.139 39.585ZM151.444 34.3499C151.444 34.3874 151.424 34.6501 151.385 35.1379H143.445C143.588 35.7634 143.927 36.2575 144.459 36.6203C144.993 36.9831 145.656 37.1645 146.449 37.1645C146.996 37.1645 147.477 37.0894 147.893 36.9393C148.322 36.7766 148.719 36.5265 149.083 36.1887L150.702 37.8775C149.714 38.9657 148.27 39.5099 146.371 39.5099C145.188 39.5099 144.141 39.291 143.23 38.8532C142.32 38.4029 141.618 37.7836 141.124 36.9956C140.629 36.2075 140.383 35.3131 140.383 34.3123C140.383 33.3241 140.623 32.4359 141.104 31.6479C141.599 30.8473 142.268 30.2281 143.114 29.7903C143.972 29.3399 144.927 29.1148 145.981 29.1148C147.009 29.1148 147.939 29.3274 148.771 29.7528C149.603 30.1781 150.253 30.791 150.721 31.5916C151.203 32.3797 151.444 33.2991 151.444 34.3499ZM146.001 31.3289C145.311 31.3289 144.733 31.5166 144.265 31.8918C143.796 32.2671 143.511 32.7799 143.406 33.4304H148.576C148.471 32.7925 148.186 32.2859 147.717 31.9106C147.249 31.5228 146.677 31.3289 146.001 31.3289ZM159.96 29.1148C160.935 29.1148 161.819 29.3337 162.612 29.7716C163.42 30.1968 164.05 30.8035 164.504 31.5916C164.96 32.3671 165.188 33.2741 165.188 34.3123C165.188 35.3506 164.96 36.2638 164.504 37.0519C164.05 37.8275 163.42 38.4341 162.612 38.872C161.819 39.2973 160.935 39.5099 159.96 39.5099C158.621 39.5099 157.567 39.1034 156.8 38.2903V43H153.757V29.2649H156.663V30.4282C157.417 29.5526 158.517 29.1148 159.96 29.1148ZM159.433 37.1082C160.214 37.1082 160.851 36.858 161.345 36.3575C161.852 35.8447 162.106 35.163 162.106 34.3123C162.106 33.4617 161.852 32.7862 161.345 32.2859C160.851 31.7729 160.214 31.5166 159.433 31.5166C158.653 31.5166 158.009 31.7729 157.502 32.2859C157.008 32.7862 156.761 33.4617 156.761 34.3123C156.761 35.163 157.008 35.8447 157.502 36.3575C158.009 36.858 158.653 37.1082 159.433 37.1082ZM175.339 34.0872C176.574 34.4874 177.191 35.2881 177.191 36.4889C177.191 37.4021 176.834 38.1089 176.119 38.6092C175.404 39.1096 174.337 39.3598 172.919 39.3598H167.321V29.2649H172.686C173.999 29.2649 175.026 29.4963 175.768 29.9591C176.509 30.4095 176.879 31.0475 176.879 31.8731C176.879 32.3734 176.743 32.8175 176.47 33.2053C176.21 33.5806 175.833 33.8745 175.339 34.0872ZM170.111 33.4117H172.412C173.479 33.4117 174.012 33.0489 174.012 32.3234C174.012 31.6103 173.479 31.2538 172.412 31.2538H170.111V33.4117ZM172.666 37.3708C173.784 37.3708 174.344 37.0019 174.344 36.2638C174.344 35.876 174.213 35.5945 173.953 35.4194C173.693 35.2318 173.283 35.1379 172.725 35.1379H170.111V37.3708H172.666ZM179.455 29.2649H182.479V35.2693L187.59 29.2649H190.379V39.3598H187.355V33.3554L182.264 39.3598H179.455V29.2649ZM198.299 39.5099C197.18 39.5099 196.172 39.291 195.275 38.8532C194.391 38.4029 193.695 37.7836 193.187 36.9956C192.693 36.2075 192.447 35.3131 192.447 34.3123C192.447 33.3116 192.693 32.4172 193.187 31.6291C193.695 30.841 194.391 30.2281 195.275 29.7903C196.172 29.3399 197.18 29.1148 198.299 29.1148C199.404 29.1148 200.367 29.3399 201.186 29.7903C202.018 30.2281 202.623 30.8598 203 31.6854L200.639 32.905C200.094 31.9794 199.306 31.5166 198.279 31.5166C197.486 31.5166 196.829 31.7668 196.309 32.2671C195.788 32.7675 195.529 33.4492 195.529 34.3123C195.529 35.1755 195.788 35.8572 196.309 36.3575C196.829 36.858 197.486 37.1082 198.279 37.1082C199.319 37.1082 200.107 36.6453 200.639 35.7196L203 36.958C202.623 37.7586 202.018 38.3841 201.186 38.8344C200.367 39.2848 199.404 39.5099 198.299 39.5099Z" fill="#E3B057"/>
<path d="M64.6701 28.5101H58.1384L58.1581 39.311H55V26H64.6898L64.6701 28.5101ZM70.4913 28.9284C72.1259 28.9284 73.3812 29.3087 74.2574 30.0693C75.1336 30.8173 75.5716 31.9519 75.5716 33.4732V39.311H72.7079V38.037C72.1325 38.9877 71.0602 39.4631 69.491 39.4631C68.6803 39.4631 67.9741 39.33 67.3726 39.0637C66.7842 38.7976 66.333 38.4299 66.0191 37.9609C65.7053 37.4918 65.5484 36.9594 65.5484 36.3636C65.5484 35.4128 65.9146 34.6648 66.6469 34.1197C67.3923 33.5745 68.5364 33.302 70.0794 33.302H72.5117C72.5117 32.6555 72.309 32.1611 71.9037 31.8188C71.4983 31.4638 70.8902 31.2864 70.0794 31.2864C69.5172 31.2864 68.9614 31.3751 68.4121 31.5525C67.876 31.7174 67.4183 31.9456 67.0391 32.2372L65.9407 30.1645C66.516 29.7714 67.2026 29.4672 68.0003 29.2517C68.811 29.0362 69.6414 28.9284 70.4913 28.9284ZM70.256 37.4664C70.7791 37.4664 71.2432 37.3524 71.6487 37.1242C72.054 36.8833 72.3417 36.5347 72.5117 36.0783V35.0325H70.4129C69.1575 35.0325 68.5299 35.4318 68.5299 36.2304C68.5299 36.6108 68.6803 36.915 68.981 37.1432C69.2949 37.3587 69.7198 37.4664 70.256 37.4664ZM84.4477 28.9284C85.4284 28.9284 86.3176 29.1503 87.1153 29.5939C87.926 30.025 88.5602 30.6399 89.0179 31.4385C89.4756 32.2245 89.7044 33.1436 89.7044 34.1958C89.7044 35.2479 89.4756 36.1734 89.0179 36.972C88.5602 37.758 87.926 38.3729 87.1153 38.8165C86.3176 39.2476 85.4284 39.4631 84.4477 39.4631C83.1008 39.4631 82.0416 39.0511 81.2701 38.2271V43H78.2101V29.0805H81.1327V30.2595C81.8912 29.3721 82.9961 28.9284 84.4477 28.9284ZM83.9181 37.0291C84.7026 37.0291 85.3434 36.7756 85.8403 36.2684C86.3503 35.7487 86.6052 35.0578 86.6052 34.1958C86.6052 33.3338 86.3503 32.6492 85.8403 32.1421C85.3434 31.6223 84.7026 31.3625 83.9181 31.3625C83.1335 31.3625 82.4862 31.6223 81.9762 32.1421C81.4792 32.6492 81.2308 33.3338 81.2308 34.1958C81.2308 35.0578 81.4792 35.7487 81.9762 36.2684C82.4862 36.7756 83.1335 37.0291 83.9181 37.0291ZM95.7761 28.9284C97.4109 28.9284 98.6663 29.3087 99.5424 30.0693C100.419 30.8173 100.857 31.9519 100.857 33.4732V39.311H97.9928V38.037C97.4175 38.9877 96.345 39.4631 94.7758 39.4631C93.965 39.4631 93.2589 39.33 92.6574 39.0637C92.0689 38.7976 91.6177 38.4299 91.3039 37.9609C90.9901 37.4918 90.8332 36.9594 90.8332 36.3636C90.8332 35.4128 91.1993 34.6648 91.9316 34.1197C92.677 33.5745 93.8212 33.302 95.3642 33.302H97.7967C97.7967 32.6555 97.594 32.1611 97.1886 31.8188C96.7832 31.4638 96.175 31.2864 95.3642 31.2864C94.8019 31.2864 94.2462 31.3751 93.6969 31.5525C93.1608 31.7174 92.7031 31.9456 92.3239 32.2372L91.2255 30.1645C91.8008 29.7714 92.4873 29.4672 93.285 29.2517C94.0958 29.0362 94.9262 28.9284 95.7761 28.9284ZM95.5408 37.4664C96.0638 37.4664 96.528 37.3524 96.9336 37.1242C97.339 36.8833 97.6267 36.5347 97.7967 36.0783V35.0325H95.6977C94.4423 35.0325 93.8146 35.4318 93.8146 36.2304C93.8146 36.6108 93.965 36.915 94.2658 37.1432C94.5797 37.3587 95.0046 37.4664 95.5408 37.4664ZM103.515 29.0805H106.555V33.0738H111.144V29.0805H114.204V39.311H111.144V35.4888H106.555V39.311H103.515V29.0805ZM126 31.5145H122.43V39.311H119.39V31.5145H115.819V29.0805H126V31.5145Z" fill="#FAFAFA"/>
<path d="M21.4959 55.6996C22.0231 55.8133 22.424 56.0365 22.6984 56.3695C22.9728 56.6949 23.1101 57.1225 23.1101 57.6522C23.1101 58.341 22.8753 58.8707 22.4059 59.2415C21.9437 59.6123 21.2612 59.7977 20.3584 59.7977H17V51.8514H20.1525C20.9614 51.8514 21.5934 52.0254 22.0484 52.3736C22.5034 52.7217 22.7309 53.2249 22.7309 53.8834C22.7309 54.3299 22.6226 54.7083 22.4059 55.0185C22.1892 55.3213 21.8859 55.5483 21.4959 55.6996ZM17.7908 55.4499H20.1092C20.6942 55.4499 21.142 55.325 21.4525 55.0753C21.7703 54.8255 21.9292 54.4623 21.9292 53.9856C21.9292 53.5088 21.7703 53.1455 21.4525 52.8958C21.142 52.646 20.6942 52.5212 20.1092 52.5212H17.7908V55.4499ZM20.3584 59.128C21.6656 59.128 22.3192 58.6171 22.3192 57.5955C22.3192 56.5965 21.6656 56.097 20.3584 56.097H17.7908V59.128H20.3584ZM26.8912 53.7812C27.6351 53.7812 28.2056 53.9779 28.6029 54.3715C29.0002 54.7575 29.1987 55.3327 29.1987 56.097V59.7977H28.462V58.8668C28.2887 59.1772 28.0323 59.4194 27.6928 59.5934C27.3606 59.7674 26.9635 59.8545 26.5012 59.8545C25.8656 59.8545 25.3601 59.6956 24.9845 59.3777C24.609 59.0598 24.4212 58.6398 24.4212 58.1176C24.4212 57.6106 24.5945 57.2019 24.9412 56.8916C25.2951 56.5814 25.8547 56.4262 26.6204 56.4262H28.4296V56.063C28.4296 55.5483 28.2923 55.1585 28.0179 54.8937C27.7435 54.6213 27.3426 54.485 26.8154 54.485C26.4543 54.485 26.1076 54.5494 25.7754 54.678C25.4431 54.7992 25.1578 54.9694 24.9195 55.1889L24.5728 54.5872C24.8617 54.3299 25.2084 54.1332 25.6129 53.9969C26.0173 53.853 26.4434 53.7812 26.8912 53.7812ZM26.6204 59.2188C27.0537 59.2188 27.4256 59.1166 27.7362 58.9123C28.0468 58.7003 28.2779 58.3977 28.4296 58.0041V57.0279H26.642C25.667 57.0279 25.1795 57.3836 25.1795 58.095C25.1795 58.4431 25.3059 58.7193 25.5587 58.9236C25.8115 59.1204 26.1653 59.2188 26.6204 59.2188ZM39.1114 53.8267V59.7977H31.2463V53.8267H32.0155V59.0939H34.8105V53.8267H35.5797V59.0939H38.3423V53.8267H39.1114ZM46.2908 57.0619H41.5241C41.5674 57.6825 41.795 58.1857 42.2067 58.5717C42.6183 58.9501 43.1383 59.1393 43.7667 59.1393C44.1206 59.1393 44.4455 59.0749 44.7417 58.9463C45.0378 58.8101 45.2942 58.6134 45.5108 58.3561L45.9442 58.8782C45.6914 59.1961 45.3737 59.4383 44.9908 59.6048C44.6153 59.7713 44.2 59.8545 43.745 59.8545C43.16 59.8545 42.64 59.7259 42.1849 59.4686C41.7372 59.2037 41.3869 58.8404 41.1341 58.3787C40.8813 57.9171 40.755 57.3948 40.755 56.8121C40.755 56.2295 40.8741 55.7073 41.1125 55.2456C41.358 54.7839 41.6903 54.4246 42.1091 54.1672C42.5353 53.9099 43.0119 53.7812 43.5392 53.7812C44.0664 53.7812 44.5395 53.9099 44.9583 54.1672C45.3773 54.4246 45.7059 54.7839 45.9442 55.2456C46.1825 55.6996 46.3017 56.2219 46.3017 56.8121L46.2908 57.0619ZM43.5392 54.4737C42.9903 54.4737 42.5281 54.6591 42.1525 55.0299C41.7841 55.3932 41.5747 55.87 41.5241 56.4603H45.565C45.5145 55.87 45.3014 55.3932 44.9258 55.0299C44.5575 54.6591 44.0953 54.4737 43.5392 54.4737ZM53.223 59.8545C52.6597 59.8545 52.1541 59.7259 51.7063 59.4686C51.2658 59.2112 50.9192 58.8517 50.6663 58.3901C50.4136 57.9209 50.2871 57.3948 50.2871 56.8121C50.2871 56.2295 50.4136 55.7073 50.6663 55.2456C50.9192 54.7839 51.2658 54.4246 51.7063 54.1672C52.1541 53.9099 52.6597 53.7812 53.223 53.7812C53.7142 53.7812 54.1511 53.8834 54.5339 54.0877C54.9239 54.2845 55.2308 54.5758 55.4547 54.9618L54.8805 55.3705C54.6928 55.0753 54.4544 54.8559 54.1655 54.712C53.8767 54.5607 53.5625 54.485 53.223 54.485C52.8113 54.485 52.4394 54.5834 52.1071 54.7802C51.7822 54.9694 51.5258 55.2418 51.338 55.5975C51.1575 55.9532 51.0671 56.3581 51.0671 56.8121C51.0671 57.2739 51.1575 57.6825 51.338 58.0382C51.5258 58.3864 51.7822 58.6588 52.1071 58.8556C52.4394 59.0447 52.8113 59.1393 53.223 59.1393C53.5625 59.1393 53.8767 59.0675 54.1655 58.9236C54.4544 58.7798 54.6928 58.5603 54.8805 58.2652L55.4547 58.6739C55.2308 59.0598 54.9239 59.3551 54.5339 59.5593C54.1438 59.756 53.7069 59.8545 53.223 59.8545ZM62.0574 53.8267V59.7977H61.2883V54.5418H57.7132V59.7977H56.9441V53.8267H62.0574ZM66.5948 59.8545C66.0459 59.8545 65.5512 59.7259 65.1106 59.4686C64.6701 59.2037 64.3234 58.8404 64.0706 58.3787C63.8179 57.9171 63.6915 57.3948 63.6915 56.8121C63.6915 56.2295 63.8179 55.7073 64.0706 55.2456C64.3234 54.7839 64.6701 54.4246 65.1106 54.1672C65.5512 53.9099 66.0459 53.7812 66.5948 53.7812C67.1438 53.7812 67.6385 53.9099 68.0791 54.1672C68.5196 54.4246 68.8626 54.7839 69.1082 55.2456C69.3609 55.7073 69.4874 56.2295 69.4874 56.8121C69.4874 57.3948 69.3609 57.9171 69.1082 58.3787C68.8626 58.8404 68.5196 59.2037 68.0791 59.4686C67.6385 59.7259 67.1438 59.8545 66.5948 59.8545ZM66.5948 59.1393C66.9992 59.1393 67.3604 59.0447 67.6782 58.8556C68.0031 58.6588 68.2559 58.3825 68.4366 58.0268C68.6171 57.6711 68.7074 57.2662 68.7074 56.8121C68.7074 56.3581 68.6171 55.9532 68.4366 55.5975C68.2559 55.2418 68.0031 54.9694 67.6782 54.7802C67.3604 54.5834 66.9992 54.485 66.5948 54.485C66.1904 54.485 65.8256 54.5834 65.5007 54.7802C65.1829 54.9694 64.9301 55.2418 64.7423 55.5975C64.5618 55.9532 64.4715 56.3581 64.4715 56.8121C64.4715 57.2662 64.5618 57.6711 64.7423 58.0268C64.9301 58.3825 65.1829 58.6588 65.5007 58.8556C65.8256 59.0447 66.1904 59.1393 66.5948 59.1393ZM73.2004 57.1414H71.9004V59.7977H71.1312V53.8267H71.9004V56.4489H73.2112L75.2155 53.8267H76.0496L73.8071 56.7214L76.2121 59.7977H75.3021L73.2004 57.1414ZM79.5759 59.8545C79.0271 59.8545 78.5323 59.7259 78.0917 59.4686C77.6512 59.2037 77.3045 58.8404 77.0517 58.3787C76.7989 57.9171 76.6726 57.3948 76.6726 56.8121C76.6726 56.2295 76.7989 55.7073 77.0517 55.2456C77.3045 54.7839 77.6512 54.4246 78.0917 54.1672C78.5323 53.9099 79.0271 53.7812 79.5759 53.7812C80.1248 53.7812 80.6196 53.9099 81.0601 54.1672C81.5006 54.4246 81.8438 54.7839 82.0892 55.2456C82.3421 55.7073 82.4685 56.2295 82.4685 56.8121C82.4685 57.3948 82.3421 57.9171 82.0892 58.3787C81.8438 58.8404 81.5006 59.2037 81.0601 59.4686C80.6196 59.7259 80.1248 59.8545 79.5759 59.8545ZM79.5759 59.1393C79.9804 59.1393 80.3415 59.0447 80.6593 58.8556C80.9842 58.6588 81.2371 58.3825 81.4176 58.0268C81.5982 57.6711 81.6885 57.2662 81.6885 56.8121C81.6885 56.3581 81.5982 55.9532 81.4176 55.5975C81.2371 55.2418 80.9842 54.9694 80.6593 54.7802C80.3415 54.5834 79.9804 54.485 79.5759 54.485C79.1715 54.485 78.8067 54.5834 78.4818 54.7802C78.164 54.9694 77.9112 55.2418 77.7234 55.5975C77.5428 55.9532 77.4526 56.3581 77.4526 56.8121C77.4526 57.2662 77.5428 57.6711 77.7234 58.0268C77.9112 58.3825 78.164 58.6588 78.4818 58.8556C78.8067 59.0447 79.1715 59.1393 79.5759 59.1393ZM84.1124 53.8267H84.8815V58.5717L88.6841 53.8267H89.3666V59.7977H88.5975V55.0527L84.8057 59.7977H84.1124V53.8267ZM86.7015 52.9638C86.2104 52.9638 85.8204 52.8352 85.5316 52.5779C85.2426 52.3206 85.0945 51.9573 85.0874 51.4881H85.6399C85.6471 51.7832 85.7483 52.0217 85.9433 52.2033C86.1382 52.3773 86.391 52.4643 86.7015 52.4643C87.0121 52.4643 87.2649 52.3773 87.4599 52.2033C87.6621 52.0217 87.7668 51.7832 87.7741 51.4881H88.3266C88.3194 51.9573 88.1677 52.3206 87.8716 52.5779C87.5826 52.8352 87.1927 52.9638 86.7015 52.9638ZM93.9543 59.8545C93.3909 59.8545 92.8854 59.7259 92.4377 59.4686C91.9971 59.2112 91.6504 58.8517 91.3976 58.3901C91.1448 57.9209 91.0184 57.3948 91.0184 56.8121C91.0184 56.2295 91.1448 55.7073 91.3976 55.2456C91.6504 54.7839 91.9971 54.4246 92.4377 54.1672C92.8854 53.9099 93.3909 53.7812 93.9543 53.7812C94.4454 53.7812 94.8824 53.8834 95.2652 54.0877C95.6552 54.2845 95.9621 54.5758 96.186 54.9618L95.6118 55.3705C95.424 55.0753 95.1857 54.8559 94.8968 54.712C94.6079 54.5607 94.2938 54.485 93.9543 54.485C93.5427 54.485 93.1707 54.5834 92.8384 54.7802C92.5135 54.9694 92.257 55.2418 92.0693 55.5975C91.8887 55.9532 91.7985 56.3581 91.7985 56.8121C91.7985 57.2739 91.8887 57.6825 92.0693 58.0382C92.257 58.3864 92.5135 58.6588 92.8384 58.8556C93.1707 59.0447 93.5427 59.1393 93.9543 59.1393C94.2938 59.1393 94.6079 59.0675 94.8968 58.9236C95.1857 58.7798 95.424 58.5603 95.6118 58.2652L96.186 58.6739C95.9621 59.0598 95.6552 59.3551 95.2652 59.5593C94.8752 59.756 94.4381 59.8545 93.9543 59.8545ZM101.578 54.5418H99.4218V59.7977H98.6529V54.5418H96.497V53.8267H101.578V54.5418ZM106.32 56.71C107.092 56.8993 107.479 57.3874 107.479 58.1745C107.479 58.6966 107.294 59.0977 106.926 59.3777C106.557 59.6577 106.008 59.7977 105.279 59.7977H102.69V53.8267H105.203C105.853 53.8267 106.362 53.9591 106.731 54.2239C107.099 54.4888 107.284 54.8672 107.284 55.3591C107.284 55.6846 107.197 55.9645 107.024 56.1991C106.858 56.4262 106.623 56.5965 106.32 56.71ZM103.438 56.483H105.149C105.59 56.483 105.926 56.3959 106.157 56.2219C106.395 56.0478 106.514 55.7942 106.514 55.4613C106.514 55.1283 106.395 54.8786 106.157 54.712C105.926 54.5455 105.59 54.4623 105.149 54.4623H103.438V56.483ZM105.247 59.1621C105.738 59.1621 106.106 59.0788 106.352 58.9123C106.597 58.7458 106.721 58.4847 106.721 58.129C106.721 57.7734 106.609 57.5123 106.385 57.3457C106.16 57.1717 105.807 57.0846 105.323 57.0846H103.438V59.1621H105.247ZM109.281 53.8267H110.05V58.5717L113.853 53.8267H114.536V59.7977H113.766V55.0527L109.975 59.7977H109.281V53.8267ZM121.723 57.0619H116.956C116.999 57.6825 117.227 58.1857 117.639 58.5717C118.05 58.9501 118.57 59.1393 119.199 59.1393C119.553 59.1393 119.878 59.0749 120.173 58.9463C120.471 58.8101 120.726 58.6134 120.943 58.3561L121.376 58.8782C121.124 59.1961 120.807 59.4383 120.423 59.6048C120.047 59.7713 119.632 59.8545 119.177 59.8545C118.592 59.8545 118.072 59.7259 117.617 59.4686C117.17 59.2037 116.819 58.8404 116.567 58.3787C116.314 57.9171 116.187 57.3948 116.187 56.8121C116.187 56.2295 116.306 55.7073 116.544 55.2456C116.79 54.7839 117.123 54.4246 117.541 54.1672C117.968 53.9099 118.445 53.7812 118.971 53.7812C119.499 53.7812 119.972 53.9099 120.391 54.1672C120.809 54.4246 121.138 54.7839 121.376 55.2456C121.615 55.6996 121.733 56.2219 121.733 56.8121L121.723 57.0619ZM118.971 54.4737C118.423 54.4737 117.961 54.6591 117.585 55.0299C117.216 55.3932 117.007 55.87 116.956 56.4603H120.997C120.947 55.87 120.734 55.3932 120.358 55.0299C119.99 54.6591 119.528 54.4737 118.971 54.4737ZM125.828 56.3695H128.666V57.0732H125.828V56.3695ZM133.244 53.8267H134.013V56.4716H137.599V53.8267H138.368V59.7977H137.599V57.1641H134.013V59.7977H133.244V53.8267ZM142.515 53.7812C143.259 53.7812 143.83 53.9779 144.227 54.3715C144.624 54.7575 144.822 55.3327 144.822 56.097V59.7977H144.086V58.8668C143.912 59.1772 143.657 59.4194 143.316 59.5934C142.985 59.7674 142.587 59.8545 142.125 59.8545C141.49 59.8545 140.984 59.6956 140.608 59.3777C140.233 59.0598 140.044 58.6398 140.044 58.1176C140.044 57.6106 140.218 57.2019 140.565 56.8916C140.919 56.5814 141.479 56.4262 142.244 56.4262H144.053V56.063C144.053 55.5483 143.916 55.1585 143.642 54.8937C143.367 54.6213 142.967 54.485 142.439 54.485C142.078 54.485 141.731 54.5494 141.399 54.678C141.067 54.7992 140.781 54.9694 140.543 55.1889L140.196 54.5872C140.485 54.3299 140.832 54.1332 141.236 53.9969C141.642 53.853 142.067 53.7812 142.515 53.7812ZM142.244 59.2188C142.678 59.2188 143.05 59.1166 143.36 58.9123C143.671 58.7003 143.901 58.3977 144.053 58.0041V57.0279H142.266C141.29 57.0279 140.803 57.3836 140.803 58.095C140.803 58.4431 140.93 58.7193 141.182 58.9236C141.436 59.1204 141.789 59.2188 142.244 59.2188ZM154.735 53.8267V59.7977H146.87V53.8267H147.639V59.0939H150.434V53.8267H151.203V59.0939H153.965V53.8267H154.735ZM158.893 53.7812C159.636 53.7812 160.206 53.9779 160.605 54.3715C161.001 54.7575 161.2 55.3327 161.2 56.097V59.7977H160.464V58.8668C160.29 59.1772 160.033 59.4194 159.695 59.5934C159.362 59.7674 158.964 59.8545 158.503 59.8545C157.867 59.8545 157.36 59.6956 156.986 59.3777C156.61 59.0598 156.422 58.6398 156.422 58.1176C156.422 57.6106 156.596 57.2019 156.943 56.8916C157.296 56.5814 157.856 56.4262 158.622 56.4262H160.431V56.063C160.431 55.5483 160.293 55.1585 160.019 54.8937C159.744 54.6213 159.343 54.485 158.817 54.485C158.455 54.485 158.108 54.5494 157.776 54.678C157.444 54.7992 157.159 54.9694 156.921 55.1889L156.574 54.5872C156.863 54.3299 157.209 54.1332 157.614 53.9969C158.018 53.853 158.444 53.7812 158.893 53.7812ZM158.622 59.2188C159.055 59.2188 159.427 59.1166 159.737 58.9123C160.048 58.7003 160.279 58.3977 160.431 58.0041V57.0279H158.644C157.668 57.0279 157.181 57.3836 157.181 58.095C157.181 58.4431 157.306 58.7193 157.56 58.9236C157.813 59.1204 158.167 59.2188 158.622 59.2188ZM169.018 53.7812C169.553 53.7812 170.037 53.9099 170.47 54.1672C170.904 54.4169 171.242 54.7726 171.488 55.2343C171.735 55.6959 171.857 56.2219 171.857 56.8121C171.857 57.4101 171.735 57.9398 171.488 58.4015C171.242 58.8631 170.904 59.2225 170.47 59.4799C170.044 59.7297 169.56 59.8545 169.018 59.8545C168.556 59.8545 168.138 59.756 167.761 59.5593C167.393 59.3551 167.09 59.0598 166.852 58.6739V62H166.083V53.8267H166.82V55.0072C167.05 54.6136 167.354 54.311 167.73 54.099C168.112 53.8871 168.542 53.7812 169.018 53.7812ZM168.964 59.1393C169.361 59.1393 169.722 59.0447 170.048 58.8556C170.372 58.6588 170.625 58.3825 170.806 58.0268C170.993 57.6711 171.087 57.2662 171.087 56.8121C171.087 56.3581 170.993 55.957 170.806 55.6089C170.625 55.2532 170.372 54.9769 170.048 54.7802C169.722 54.5834 169.361 54.485 168.964 54.485C168.561 54.485 168.195 54.5834 167.87 54.7802C167.552 54.9769 167.299 55.2532 167.111 55.6089C166.93 55.957 166.841 56.3581 166.841 56.8121C166.841 57.2662 166.93 57.6711 167.111 58.0268C167.299 58.3825 167.552 58.6588 167.87 58.8556C168.195 59.0447 168.561 59.1393 168.964 59.1393ZM175.438 53.7812C176.183 53.7812 176.753 53.9779 177.15 54.3715C177.548 54.7575 177.746 55.3327 177.746 56.097V59.7977H177.01V58.8668C176.836 59.1772 176.58 59.4194 176.24 59.5934C175.908 59.7674 175.511 59.8545 175.049 59.8545C174.414 59.8545 173.907 59.6956 173.531 59.3777C173.157 59.0598 172.968 58.6398 172.968 58.1176C172.968 57.6106 173.142 57.2019 173.489 56.8916C173.843 56.5814 174.402 56.4262 175.168 56.4262H176.977V56.063C176.977 55.5483 176.84 55.1585 176.565 54.8937C176.291 54.6213 175.89 54.485 175.363 54.485C175.002 54.485 174.655 54.5494 174.322 54.678C173.991 54.7992 173.705 54.9694 173.467 55.1889L173.12 54.5872C173.409 54.3299 173.756 54.1332 174.16 53.9969C174.565 53.853 174.991 53.7812 175.438 53.7812ZM175.168 59.2188C175.601 59.2188 175.974 59.1166 176.283 58.9123C176.595 58.7003 176.825 58.3977 176.977 58.0041V57.0279H175.189C174.214 57.0279 173.727 57.3836 173.727 58.095C173.727 58.4431 173.853 58.7193 174.106 58.9236C174.36 59.1204 174.713 59.2188 175.168 59.2188ZM182.556 53.9742C183.084 53.9742 183.553 54.099 183.964 54.3488C184.384 54.591 184.708 54.9353 184.939 55.3818C185.171 55.8208 185.286 56.324 185.286 56.8916C185.286 57.4743 185.163 57.9927 184.918 58.4468C184.679 58.8933 184.344 59.2415 183.91 59.4912C183.477 59.7409 182.978 59.8658 182.415 59.8658C181.47 59.8658 180.736 59.5177 180.216 58.8215C179.696 58.1252 179.436 57.1641 179.436 55.9381C179.436 54.659 179.668 53.6791 180.13 52.9979C180.6 52.3168 181.329 51.8552 182.318 51.613L184.874 51L185.005 51.7378L182.6 52.3168C181.784 52.506 181.184 52.8428 180.801 53.3272C180.419 53.8039 180.209 54.5115 180.173 55.4499C180.405 54.9883 180.726 54.6288 181.137 54.3715C181.549 54.1067 182.022 53.9742 182.556 53.9742ZM182.437 59.1961C182.835 59.1961 183.188 59.1015 183.499 58.9123C183.817 58.7155 184.062 58.4431 184.235 58.095C184.416 57.7468 184.506 57.3533 184.506 56.9144C184.506 56.4754 184.419 56.0894 184.246 55.7564C184.073 55.4234 183.828 55.1661 183.509 54.9845C183.199 54.7953 182.842 54.7007 182.437 54.7007C182.033 54.7007 181.672 54.7953 181.354 54.9845C181.044 55.1661 180.797 55.4234 180.617 55.7564C180.444 56.0894 180.357 56.4754 180.357 56.9144C180.357 57.3533 180.444 57.7468 180.617 58.095C180.797 58.4431 181.047 58.7155 181.364 58.9123C181.683 59.1015 182.04 59.1961 182.437 59.1961ZM189.286 59.8545C188.737 59.8545 188.242 59.7259 187.802 59.4686C187.361 59.2037 187.014 58.8404 186.762 58.3787C186.509 57.9171 186.383 57.3948 186.383 56.8121C186.383 56.2295 186.509 55.7073 186.762 55.2456C187.014 54.7839 187.361 54.4246 187.802 54.1672C188.242 53.9099 188.737 53.7812 189.286 53.7812C189.835 53.7812 190.329 53.9099 190.77 54.1672C191.21 54.4246 191.553 54.7839 191.8 55.2456C192.052 55.7073 192.179 56.2295 192.179 56.8121C192.179 57.3948 192.052 57.9171 191.8 58.3787C191.553 58.8404 191.21 59.2037 190.77 59.4686C190.329 59.7259 189.835 59.8545 189.286 59.8545ZM189.286 59.1393C189.69 59.1393 190.051 59.0447 190.369 58.8556C190.695 58.6588 190.947 58.3825 191.128 58.0268C191.308 57.6711 191.399 57.2662 191.399 56.8121C191.399 56.3581 191.308 55.9532 191.128 55.5975C190.947 55.2418 190.695 54.9694 190.369 54.7802C190.051 54.5834 189.69 54.485 189.286 54.485C188.881 54.485 188.517 54.5834 188.192 54.7802C187.874 54.9694 187.621 55.2418 187.434 55.5975C187.253 55.9532 187.162 56.3581 187.162 56.8121C187.162 57.2662 187.253 57.6711 187.434 58.0268C187.621 58.3825 187.874 58.6588 188.192 58.8556C188.517 59.0447 188.881 59.1393 189.286 59.1393ZM197.619 54.5418H195.463V59.7977H194.694V54.5418H192.538V53.8267H197.619V54.5418ZM200.692 53.7812C201.436 53.7812 202.007 53.9779 202.404 54.3715C202.801 54.7575 203 55.3327 203 56.097V59.7977H202.263V58.8668C202.09 59.1772 201.833 59.4194 201.494 59.5934C201.162 59.7674 200.764 59.8545 200.302 59.8545C199.666 59.8545 199.162 59.6956 198.786 59.3777C198.41 59.0598 198.222 58.6398 198.222 58.1176C198.222 57.6106 198.395 57.2019 198.742 56.8916C199.096 56.5814 199.656 56.4262 200.421 56.4262H202.23V56.063C202.23 55.5483 202.093 55.1585 201.819 54.8937C201.545 54.6213 201.144 54.485 200.616 54.485C200.255 54.485 199.908 54.5494 199.577 54.678C199.244 54.7992 198.959 54.9694 198.721 55.1889L198.374 54.5872C198.663 54.3299 199.01 54.1332 199.414 53.9969C199.818 53.853 200.245 53.7812 200.692 53.7812ZM200.421 59.2188C200.855 59.2188 201.226 59.1166 201.538 58.9123C201.848 58.7003 202.079 58.3977 202.23 58.0041V57.0279H200.443C199.468 57.0279 198.981 57.3836 198.981 58.095C198.981 58.4431 199.108 58.7193 199.359 58.9236C199.612 59.1204 199.966 59.2188 200.421 59.2188Z" fill="#FAFAFA"/>
</svg>
